{
    "asset" : {
        "generator" : "Khronos glTF Blender I/O v1.6.16",
        "version" : "2.0"
    },
    "scene" : 0,
    "scenes" : [
        {
            "name" : "Scene",
            "nodes" : [
                1,
                2,
                3
            ]
        }
    ],
    "nodes" : [
        {
            "mesh" : 0,
            "name" : "c",
            "translation" : [
                -3.1999998092651367,
                0,
                0
            ]
        },
        {
            "children" : [
                0
            ],
            "name" : "Empty"
        },
        {
            "name" : "Camera",
            "translation" : [
                0,
                10,
                0
            ]
        },
        {
            "name" : "Sun",
            "rotation" : [
                -0.030638890340924263,
                0,
                0,
                0.9995306134223938
            ],
            "translation" : [
                -0.6426039338111877,
                3.506129741668701,
                0.9542825222015381
            ]
        }
    ],
    "animations" : [
        {
            "channels" : [
                {
                    "sampler" : 0,
                    "target" : {
                        "node" : 1,
                        "path" : "rotation"
                    }
                }
            ],
            "name" : "EmptyAction",
            "samplers" : [
                {
                    "input" : 4,
                    "interpolation" : "STEP",
                    "output" : 5
                }
            ]
        }
    ],
    "materials" : [
        {
            "doubleSided" : true,
            "name" : "Material.004",
            "pbrMetallicRoughness" : {
                "baseColorTexture" : {
                    "index" : 0
                },
                "metallicFactor" : 0,
                "roughnessFactor" : 0.5
            }
        }
    ],
    "meshes" : [
        {
            "name" : "Plane.006",
            "primitives" : [
                {
                    "attributes" : {
                        "POSITION" : 0,
                        "NORMAL" : 1,
                        "TEXCOORD_0" : 2
                    },
                    "indices" : 3,
                    "material" : 0
                }
            ]
        }
    ],
    "textures" : [
        {
            "sampler" : 0,
            "source" : 0
        }
    ],
    "images" : [
        {
            "bufferView" : 4,
            "mimeType" : "image/jpeg",
            "name" : "betonGltfAO"
        }
    ],
    "accessors" : [
        {
            "bufferView" : 0,
            "componentType" : 5126,
            "count" : 35638,
            "max" : [
                17.430774688720703,
                2.345048189163208,
                10.463667869567871
            ],
            "min" : [
                -10.008390426635742,
                -0.029999999329447746,
                -9.947897911071777
            ],
            "type" : "VEC3"
        },
        {
            "bufferView" : 1,
            "componentType" : 5126,
            "count" : 35638,
            "type" : "VEC3"
        },
        {
            "bufferView" : 2,
            "componentType" : 5126,
            "count" : 35638,
            "type" : "VEC2"
        },
        {
            "bufferView" : 3,
            "componentType" : 5123,
            "count" : 83574,
            "type" : "SCALAR"
        },
        {
            "bufferView" : 5,
            "componentType" : 5126,
            "count" : 1,
            "max" : [
                0
            ],
            "min" : [
                0
            ],
            "type" : "SCALAR"
        },
        {
            "bufferView" : 6,
            "componentType" : 5126,
            "count" : 1,
            "type" : "VEC4"
        }
    ],
    "bufferViews" : [
        {
            "buffer" : 0,
            "byteLength" : 427656,
            "byteOffset" : 0
        },
        {
            "buffer" : 0,
            "byteLength" : 427656,
            "byteOffset" : 427656
        },
        {
            "buffer" : 0,
            "byteLength" : 285104,
            "byteOffset" : 855312
        },
        {
            "buffer" : 0,
            "byteLength" : 167148,
            "byteOffset" : 1140416
        },
        {
            "buffer" : 0,
            "byteLength" : 297012,
            "byteOffset" : 1307564
        },
        {
            "buffer" : 0,
            "byteLength" : 4,
            "byteOffset" : 1604576
        },
        {
            "buffer" : 0,
            "byteLength" : 16,
            "byteOffset" : 1604580
        }
    ],
    "samplers" : [
        {
            "magFilter" : 9729,
            "minFilter" : 9987
        }
    ],
    "buffers" : [
        {
            "byteLength" : 1604596,
            "uri" : "data:application/octet-stream;base64,"
        }
    ]
}
