{
    "asset" : {
        "generator" : "Khronos glTF Blender I/O v1.6.16",
        "version" : "2.0"
    },
    "scene" : 0,
    "scenes" : [
        {
            "name" : "Scene",
            "nodes" : [
                1,
                2,
                3,
                4
            ]
        }
    ],
    "nodes" : [
        {
            "mesh" : 0,
            "name" : "c",
            "translation" : [
                -3.1999998092651367,
                0,
                0
            ]
        },
        {
            "children" : [
                0
            ],
            "name" : "Empty"
        },
        {
            "mesh" : 1,
            "name" : "Curve",
            "translation" : [
                3.326068878173828,
                0.017272865399718285,
                -1.9507582187652588
            ]
        },
        {
            "name" : "Camera",
            "translation" : [
                0,
                10,
                0
            ]
        },
        {
            "name" : "Sun",
            "rotation" : [
                -0.030638890340924263,
                0,
                0,
                0.9995306134223938
            ],
            "translation" : [
                -0.6426039338111877,
                3.506129741668701,
                0.9542825222015381
            ]
        }
    ],
    "animations" : [
        {
            "channels" : [
                {
                    "sampler" : 0,
                    "target" : {
                        "node" : 1,
                        "path" : "rotation"
                    }
                }
            ],
            "name" : "EmptyAction",
            "samplers" : [
                {
                    "input" : 8,
                    "interpolation" : "STEP",
                    "output" : 9
                }
            ]
        }
    ],
    "materials" : [
        {
            "doubleSided" : true,
            "name" : "Material.004",
            "pbrMetallicRoughness" : {
                "baseColorTexture" : {
                    "index" : 0
                },
                "metallicFactor" : 0,
                "roughnessFactor" : 0.5
            }
        }
    ],
    "meshes" : [
        {
            "name" : "Plane.006",
            "primitives" : [
                {
                    "attributes" : {
                        "POSITION" : 0,
                        "NORMAL" : 1,
                        "TEXCOORD_0" : 2
                    },
                    "indices" : 3,
                    "material" : 0
                }
            ]
        },
        {
            "name" : "Curve",
            "primitives" : [
                {
                    "attributes" : {
                        "POSITION" : 4,
                        "NORMAL" : 5,
                        "TEXCOORD_0" : 6
                    },
                    "indices" : 7
                }
            ]
        }
    ],
    "textures" : [
        {
            "sampler" : 0,
            "source" : 0
        }
    ],
    "images" : [
        {
            "bufferView" : 4,
            "mimeType" : "image/jpeg",
            "name" : "betonGltfAO"
        }
    ],
    "accessors" : [
        {
            "bufferView" : 0,
            "componentType" : 5126,
            "count" : 29294,
            "max" : [
                9.53093433380127,
                2.345048189163208,
                4.6955766677856445
            ],
            "min" : [
                -1.9759292602539062,
                -0.029999999329447746,
                -3.9615554809570312
            ],
            "type" : "VEC3"
        },
        {
            "bufferView" : 1,
            "componentType" : 5126,
            "count" : 29294,
            "type" : "VEC3"
        },
        {
            "bufferView" : 2,
            "componentType" : 5126,
            "count" : 29294,
            "type" : "VEC2"
        },
        {
            "bufferView" : 3,
            "componentType" : 5123,
            "count" : 83550,
            "type" : "SCALAR"
        },
        {
            "bufferView" : 5,
            "componentType" : 5126,
            "count" : 8607,
            "max" : [
                1.209005355834961,
                0.12905576825141907,
                -0.01646566390991211
            ],
            "min" : [
                0.022892087697982788,
                0.012304536998271942,
                -0.8536399602890015
            ],
            "type" : "VEC3"
        },
        {
            "bufferView" : 6,
            "componentType" : 5126,
            "count" : 8607,
            "type" : "VEC3"
        },
        {
            "bufferView" : 7,
            "componentType" : 5126,
            "count" : 8607,
            "type" : "VEC2"
        },
        {
            "bufferView" : 8,
            "componentType" : 5123,
            "count" : 13932,
            "type" : "SCALAR"
        },
        {
            "bufferView" : 9,
            "componentType" : 5126,
            "count" : 1,
            "max" : [
                0
            ],
            "min" : [
                0
            ],
            "type" : "SCALAR"
        },
        {
            "bufferView" : 10,
            "componentType" : 5126,
            "count" : 1,
            "type" : "VEC4"
        }
    ],
    "bufferViews" : [
        {
            "buffer" : 0,
            "byteLength" : 351528,
            "byteOffset" : 0
        },
        {
            "buffer" : 0,
            "byteLength" : 351528,
            "byteOffset" : 351528
        },
        {
            "buffer" : 0,
            "byteLength" : 234352,
            "byteOffset" : 703056
        },
        {
            "buffer" : 0,
            "byteLength" : 167100,
            "byteOffset" : 937408
        },
        {
            "buffer" : 0,
            "byteLength" : 297012,
            "byteOffset" : 1104508
        },
        {
            "buffer" : 0,
            "byteLength" : 103284,
            "byteOffset" : 1401520
        },
        {
            "buffer" : 0,
            "byteLength" : 103284,
            "byteOffset" : 1504804
        },
        {
            "buffer" : 0,
            "byteLength" : 68856,
            "byteOffset" : 1608088
        },
        {
            "buffer" : 0,
            "byteLength" : 27864,
            "byteOffset" : 1676944
        },
        {
            "buffer" : 0,
            "byteLength" : 4,
            "byteOffset" : 1704808
        },
        {
            "buffer" : 0,
            "byteLength" : 16,
            "byteOffset" : 1704812
        }
    ],
    "samplers" : [
        {
            "magFilter" : 9729,
            "minFilter" : 9987
        }
    ],
    "buffers" : [
        {
            "byteLength" : 1704828,
            "uri" : "data:application/octet-stream;base64,"
        }
    ]
}
