<svg id="Ebene_1" data-name="Ebene 1" xmlns="http://www.w3.org/2000/svg" viewBox="0 0 479 358.96"><defs><style>.cls-1{fill:#63f;}</style></defs><path class="cls-1" d="M283.39,154.87V303.28l6.69,16.25c-.86,1.48-2,3.29-3.51,5.41s-4.73,5-9.71,8.6A26.92,26.92,0,0,1,260.77,339q-17.83,0-23.88-17.83Q226.69,339,207,339t-31.85-12.9Q163,313.16,163,294.36v-49q0-31.53,18.15-50.16t44.59-18.63a45.43,45.43,0,0,1,8.92.95,197.27,197.27,0,0,0-5.73-40.77l-1.6-6.37c.85-1.06,2.07-2.43,3.67-4.14s5-4,10.35-6.84a34.93,34.93,0,0,1,16.88-4.3Q283.39,115.06,283.39,154.87ZM208.54,276.53q0,12.42,5.58,18.31t20.54,6.85V232.26q-1-8.59-7.17-12.9t-19-6.85Z" transform="translate(-163 -18.85)"/><path class="cls-1" d="M355.68,123.82q0,13.22-6.37,21.65t-19.26,8.44q-12.9,0-19.11-9.39t-10.35-28.83q1.26-2.22,3.5-5.57t9.71-8.92q7.49-5.57,15.45-5.57,14.64,0,20.54,7.48T355.68,123.82ZM331.8,339q-26.13,0-26.12-37.58,0-95.55,2.23-125.8,6.69-6.69,21.34-6.69,25.15,0,25.16,39.81v94.59l7,16.25c-.86,1.48-2,3.29-3.51,5.41s-4.77,5-9.87,8.6A27.61,27.61,0,0,1,331.8,339Z" transform="translate(-163 -18.85)"/><path class="cls-1" d="M425.75,301.37q0,15.61,3.82,23.25-1.9,5.1-10.67,9.71A40.87,40.87,0,0,1,399.47,339q-10.67,0-16.56-6.53T377,314.75v-80.9q0-26.43-5.09-43.95L370,183.85q1.28-1.59,3.67-4.14T384,173a35.43,35.43,0,0,1,16.56-4.14q20.07,0,24.2,25.48,3.51-9.87,13.22-17t26.43-7.16a36.64,36.64,0,0,1,28.19,12.58q11.46,12.58,11.47,34.55v86l7,16.25c-.85,1.48-2,3.29-3.5,5.41s-4.78,5-9.87,8.6A27.62,27.62,0,0,1,481.48,339q-26.12,0-26.11-37.58V239.9q0-17.51-6.37-23.56t-23.25-6.06Z" transform="translate(-163 -18.85)"/><path class="cls-1" d="M593,304.24q-10.5,14-29.46,14t-29.62-11.78q-10.67-11.79-10.66-30.9V242.13c0-12.1,3.38-26.47,12.34-37.89,8.35-10.65,12.73-15.92,22.29-23.88,15.21-11.14,24.92-10.2,36.39-10.2q20.7,0,32.8,10.82,10.51,9.89,13.7,17.52l1.27,3.19V307.42q0,33.76-15.45,52.07t-45.7,18.32q-15.93,0-26.27-5.26T542,361.09a31.22,31.22,0,0,1-2.23-9.87,54.79,54.79,0,0,1,.79-8.6q.8-5,5.89-10a38.82,38.82,0,0,0,24.21,8.28q22.29,0,22.29-21Zm-24.2-42q0,24.21,24.2,25.48V224.62q-4.46-9.24-24.2-13.7Z" transform="translate(-163 -18.85)"/><path class="cls-1" d="M377,20.89a3,3,0,0,1,5.78.55c1.37,11.23,4.6,25,12.25,30.06a129.53,129.53,0,0,0,31.3,14.93,3,3,0,0,1-.42,5.77C414.51,74,403.74,78,395.31,86c-5.55,5.26-9.55,16.92-12.19,27.42a3,3,0,0,1-5.8-.2c-1.89-10.16-5.71-21.63-13.45-28.38C355.36,77.45,344.39,73.33,335.1,71a3,3,0,0,1,0-5.8c9.82-2.12,20.87-5.57,26.48-11C367,49.07,372.92,33.21,377,20.89Z" transform="translate(-163 -18.85)"/></svg>