{
    "asset" : {
        "generator" : "Khronos glTF Blender I/O v1.6.16",
        "version" : "2.0"
    },
    "scene" : 0,
    "scenes" : [
        {
            "name" : "Scene",
            "nodes" : [
                0,
                1
            ]
        }
    ],
    "nodes" : [
        {
            "mesh" : 0,
            "name" : "monstera",
            "translation" : [
                0,
                1.427545428276062,
                0
            ]
        },
        {
            "mesh" : 1,
            "name" : "Circle"
        }
    ],
    "materials" : [
        {
            "doubleSided" : true,
            "emissiveFactor" : [
                1,
                1,
                1
            ],
            "emissiveTexture" : {
                "index" : 0
            },
            "name" : "inside_monstera",
            "pbrMetallicRoughness" : {
                "baseColorTexture" : {
                    "index" : 1
                },
                "metallicFactor" : 0,
                "roughnessFactor" : 0.9577051401138306
            }
        },
        {
            "doubleSided" : true,
            "name" : "Monstera_Leaf",
            "normalTexture" : {
                "index" : 2
            },
            "occlusionTexture" : {
                "index" : 3
            },
            "pbrMetallicRoughness" : {
                "baseColorTexture" : {
                    "index" : 4
                },
                "metallicFactor" : 0.7395198345184326,
                "metallicRoughnessTexture" : {
                    "index" : 3
                }
            }
        },
        {
            "doubleSided" : true,
            "name" : "stem",
            "pbrMetallicRoughness" : {
                "baseColorFactor" : [
                    0.02724497579038143,
                    0.11106511205434799,
                    0.016312861815094948,
                    1
                ],
                "metallicFactor" : 0,
                "roughnessFactor" : 0.9577051401138306
            }
        },
        {
            "doubleSided" : true,
            "name" : "terracotta",
            "pbrMetallicRoughness" : {
                "baseColorFactor" : [
                    0.8000000715255737,
                    0.39426010847091675,
                    0.2797926366329193,
                    1
                ],
                "metallicFactor" : 0,
                "metallicRoughnessTexture" : {
                    "index" : 5
                }
            }
        },
        {
            "doubleSided" : true,
            "name" : "dirt",
            "pbrMetallicRoughness" : {
                "baseColorFactor" : [
                    0.05594003200531006,
                    0.028206152841448784,
                    0.012686925008893013,
                    1
                ],
                "metallicFactor" : 0,
                "metallicRoughnessTexture" : {
                    "index" : 6
                }
            }
        }
    ],
    "meshes" : [
        {
            "name" : "6L.004_inside monstera_0",
            "primitives" : [
                {
                    "attributes" : {
                        "POSITION" : 0,
                        "NORMAL" : 1,
                        "TEXCOORD_0" : 2
                    },
                    "indices" : 3,
                    "material" : 0
                },
                {
                    "attributes" : {
                        "POSITION" : 4,
                        "NORMAL" : 5,
                        "TEXCOORD_0" : 6
                    },
                    "indices" : 7,
                    "material" : 1
                },
                {
                    "attributes" : {
                        "POSITION" : 8,
                        "NORMAL" : 9,
                        "TEXCOORD_0" : 10
                    },
                    "indices" : 11,
                    "material" : 2
                }
            ]
        },
        {
            "name" : "Circle",
            "primitives" : [
                {
                    "attributes" : {
                        "POSITION" : 12,
                        "NORMAL" : 13,
                        "TEXCOORD_0" : 14
                    },
                    "indices" : 15,
                    "material" : 3
                },
                {
                    "attributes" : {
                        "POSITION" : 16,
                        "NORMAL" : 17,
                        "TEXCOORD_0" : 18
                    },
                    "indices" : 19,
                    "material" : 4
                }
            ]
        }
    ],
    "textures" : [
        {
            "sampler" : 0,
            "source" : 0
        },
        {
            "sampler" : 0,
            "source" : 0
        },
        {
            "sampler" : 0,
            "source" : 1
        },
        {
            "sampler" : 0,
            "source" : 2
        },
        {
            "sampler" : 0,
            "source" : 3
        },
        {
            "sampler" : 0,
            "source" : 4
        },
        {
            "sampler" : 0,
            "source" : 4
        }
    ],
    "images" : [
        {
            "bufferView" : 4,
            "mimeType" : "image/png",
            "name" : "inside_monstera_baseColor"
        },
        {
            "bufferView" : 9,
            "mimeType" : "image/png",
            "name" : "Monstera_Leaf_normal"
        },
        {
            "bufferView" : 10,
            "mimeType" : "image/png",
            "name" : "Monstera_Leaf_metallicRoughness"
        },
        {
            "bufferView" : 11,
            "mimeType" : "image/png",
            "name" : "Monstera_Leaf_baseColor"
        },
        {
            "bufferView" : 20,
            "mimeType" : "image/png",
            "name" : "noise"
        }
    ],
    "accessors" : [
        {
            "bufferView" : 0,
            "componentType" : 5126,
            "count" : 12378,
            "max" : [
                3.418921947479248,
                6.404202938079834,
                3.4128198623657227
            ],
            "min" : [
                -3.967179775238037,
                0.8971010446548462,
                -1.5359489917755127
            ],
            "type" : "VEC3"
        },
        {
            "bufferView" : 1,
            "componentType" : 5126,
            "count" : 12378,
            "type" : "VEC3"
        },
        {
            "bufferView" : 2,
            "componentType" : 5126,
            "count" : 12378,
            "type" : "VEC2"
        },
        {
            "bufferView" : 3,
            "componentType" : 5123,
            "count" : 18456,
            "type" : "SCALAR"
        },
        {
            "bufferView" : 5,
            "componentType" : 5126,
            "count" : 32139,
            "max" : [
                3.4308903217315674,
                6.427207946777344,
                3.438957929611206
            ],
            "min" : [
                -4.016722679138184,
                0.882081925868988,
                -1.5595488548278809
            ],
            "type" : "VEC3"
        },
        {
            "bufferView" : 6,
            "componentType" : 5126,
            "count" : 32139,
            "type" : "VEC3"
        },
        {
            "bufferView" : 7,
            "componentType" : 5126,
            "count" : 32139,
            "type" : "VEC2"
        },
        {
            "bufferView" : 8,
            "componentType" : 5123,
            "count" : 47895,
            "type" : "SCALAR"
        },
        {
            "bufferView" : 12,
            "componentType" : 5126,
            "count" : 207,
            "max" : [
                3.0458767414093018,
                5.884189605712891,
                2.259169101715088
            ],
            "min" : [
                -2.8151707649230957,
                -0.23737692832946777,
                -0.6712583303451538
            ],
            "type" : "VEC3"
        },
        {
            "bufferView" : 13,
            "componentType" : 5126,
            "count" : 207,
            "type" : "VEC3"
        },
        {
            "bufferView" : 14,
            "componentType" : 5126,
            "count" : 207,
            "type" : "VEC2"
        },
        {
            "bufferView" : 15,
            "componentType" : 5123,
            "count" : 1002,
            "type" : "SCALAR"
        },
        {
            "bufferView" : 16,
            "componentType" : 5126,
            "count" : 790,
            "max" : [
                1.2196732759475708,
                2.261195182800293,
                1.2196732759475708
            ],
            "min" : [
                -1.2196732759475708,
                0,
                -1.2196732759475708
            ],
            "type" : "VEC3"
        },
        {
            "bufferView" : 17,
            "componentType" : 5126,
            "count" : 790,
            "type" : "VEC3"
        },
        {
            "bufferView" : 18,
            "componentType" : 5126,
            "count" : 790,
            "type" : "VEC2"
        },
        {
            "bufferView" : 19,
            "componentType" : 5123,
            "count" : 3234,
            "type" : "SCALAR"
        },
        {
            "bufferView" : 21,
            "componentType" : 5126,
            "count" : 72,
            "max" : [
                0.9649677872657776,
                1.913328766822815,
                0.9649677872657776
            ],
            "min" : [
                -0.9649677872657776,
                1.8994076251983643,
                -0.9649677872657776
            ],
            "type" : "VEC3"
        },
        {
            "bufferView" : 22,
            "componentType" : 5126,
            "count" : 72,
            "type" : "VEC3"
        },
        {
            "bufferView" : 23,
            "componentType" : 5126,
            "count" : 72,
            "type" : "VEC2"
        },
        {
            "bufferView" : 24,
            "componentType" : 5123,
            "count" : 210,
            "type" : "SCALAR"
        }
    ],
    "bufferViews" : [
        {
            "buffer" : 0,
            "byteLength" : 148536,
            "byteOffset" : 0
        },
        {
            "buffer" : 0,
            "byteLength" : 148536,
            "byteOffset" : 148536
        },
        {
            "buffer" : 0,
            "byteLength" : 99024,
            "byteOffset" : 297072
        },
        {
            "buffer" : 0,
            "byteLength" : 36912,
            "byteOffset" : 396096
        },
        {
            "buffer" : 0,
            "byteLength" : 147218,
            "byteOffset" : 433008
        },
        {
            "buffer" : 0,
            "byteLength" : 385668,
            "byteOffset" : 580228
        },
        {
            "buffer" : 0,
            "byteLength" : 385668,
            "byteOffset" : 965896
        },
        {
            "buffer" : 0,
            "byteLength" : 257112,
            "byteOffset" : 1351564
        },
        {
            "buffer" : 0,
            "byteLength" : 95790,
            "byteOffset" : 1608676
        },
        {
            "buffer" : 0,
            "byteLength" : 202210,
            "byteOffset" : 1704468
        },
        {
            "buffer" : 0,
            "byteLength" : 205435,
            "byteOffset" : 1906680
        },
        {
            "buffer" : 0,
            "byteLength" : 498355,
            "byteOffset" : 2112116
        },
        {
            "buffer" : 0,
            "byteLength" : 2484,
            "byteOffset" : 2610472
        },
        {
            "buffer" : 0,
            "byteLength" : 2484,
            "byteOffset" : 2612956
        },
        {
            "buffer" : 0,
            "byteLength" : 1656,
            "byteOffset" : 2615440
        },
        {
            "buffer" : 0,
            "byteLength" : 2004,
            "byteOffset" : 2617096
        },
        {
            "buffer" : 0,
            "byteLength" : 9480,
            "byteOffset" : 2619100
        },
        {
            "buffer" : 0,
            "byteLength" : 9480,
            "byteOffset" : 2628580
        },
        {
            "buffer" : 0,
            "byteLength" : 6320,
            "byteOffset" : 2638060
        },
        {
            "buffer" : 0,
            "byteLength" : 6468,
            "byteOffset" : 2644380
        },
        {
            "buffer" : 0,
            "byteLength" : 9271,
            "byteOffset" : 2650848
        },
        {
            "buffer" : 0,
            "byteLength" : 864,
            "byteOffset" : 2660120
        },
        {
            "buffer" : 0,
            "byteLength" : 864,
            "byteOffset" : 2660984
        },
        {
            "buffer" : 0,
            "byteLength" : 576,
            "byteOffset" : 2661848
        },
        {
            "buffer" : 0,
            "byteLength" : 420,
            "byteOffset" : 2662424
        }
    ],
    "samplers" : [
        {
            "magFilter" : 9729,
            "minFilter" : 9987
        }
    ],
    "buffers" : [
        {
            "byteLength" : 2662844,
            "uri" : "data:application/octet-stream;base64,"
        }
    ]
}
