{
    "asset" : {
        "generator" : "Khronos glTF Blender I/O v1.6.16",
        "version" : "2.0"
    },
    "scene" : 0,
    "scenes" : [
        {
            "name" : "Scene",
            "nodes" : [
                0,
                1
            ]
        }
    ],
    "nodes" : [
        {
            "mesh" : 0,
            "name" : "monstera",
            "translation" : [
                0,
                1.427545428276062,
                0
            ]
        },
        {
            "mesh" : 1,
            "name" : "Circle"
        }
    ],
    "materials" : [
        {
            "doubleSided" : true,
            "emissiveFactor" : [
                1,
                1,
                1
            ],
            "emissiveTexture" : {
                "index" : 0
            },
            "name" : "inside_monstera",
            "pbrMetallicRoughness" : {
                "baseColorTexture" : {
                    "index" : 1
                },
                "metallicFactor" : 0,
                "roughnessFactor" : 0.9577051401138306
            }
        },
        {
            "doubleSided" : true,
            "name" : "Monstera_Leaf",
            "normalTexture" : {
                "index" : 2
            },
            "occlusionTexture" : {
                "index" : 3
            },
            "pbrMetallicRoughness" : {
                "baseColorTexture" : {
                    "index" : 4
                },
                "metallicFactor" : 0.7395198345184326,
                "metallicRoughnessTexture" : {
                    "index" : 3
                }
            }
        },
        {
            "doubleSided" : true,
            "name" : "stem",
            "pbrMetallicRoughness" : {
                "baseColorFactor" : [
                    0.02724497579038143,
                    0.11106511205434799,
                    0.016312861815094948,
                    1
                ],
                "metallicFactor" : 0,
                "roughnessFactor" : 0.9577051401138306
            }
        },
        {
            "doubleSided" : true,
            "name" : "terracotta",
            "pbrMetallicRoughness" : {
                "baseColorFactor" : [
                    0.8000000715255737,
                    0.39426010847091675,
                    0.2797926366329193,
                    1
                ],
                "metallicFactor" : 0,
                "metallicRoughnessTexture" : {
                    "index" : 5
                }
            }
        },
        {
            "doubleSided" : true,
            "name" : "dirt",
            "pbrMetallicRoughness" : {
                "baseColorFactor" : [
                    0.05594003200531006,
                    0.028206152841448784,
                    0.012686925008893013,
                    1
                ],
                "metallicFactor" : 0,
                "metallicRoughnessTexture" : {
                    "index" : 6
                }
            }
        }
    ],
    "meshes" : [
        {
            "extras" : {
                "targetNames" : [
                    "down"
                ]
            },
            "name" : "6L.004_inside monstera_0",
            "primitives" : [
                {
                    "attributes" : {
                        "POSITION" : 0,
                        "NORMAL" : 1,
                        "TEXCOORD_0" : 2
                    },
                    "indices" : 3,
                    "material" : 0,
                    "targets" : [
                        {
                            "POSITION" : 4,
                            "NORMAL" : 5
                        }
                    ]
                },
                {
                    "attributes" : {
                        "POSITION" : 6,
                        "NORMAL" : 7,
                        "TEXCOORD_0" : 8
                    },
                    "indices" : 9,
                    "material" : 1,
                    "targets" : [
                        {
                            "POSITION" : 10,
                            "NORMAL" : 11
                        }
                    ]
                },
                {
                    "attributes" : {
                        "POSITION" : 12,
                        "NORMAL" : 13,
                        "TEXCOORD_0" : 14
                    },
                    "indices" : 15,
                    "material" : 2,
                    "targets" : [
                        {
                            "POSITION" : 16,
                            "NORMAL" : 17
                        }
                    ]
                }
            ],
            "weights" : [
                0
            ]
        },
        {
            "name" : "Circle",
            "primitives" : [
                {
                    "attributes" : {
                        "POSITION" : 18,
                        "NORMAL" : 19,
                        "TEXCOORD_0" : 20
                    },
                    "indices" : 21,
                    "material" : 3
                },
                {
                    "attributes" : {
                        "POSITION" : 22,
                        "NORMAL" : 23,
                        "TEXCOORD_0" : 24
                    },
                    "indices" : 25,
                    "material" : 4
                }
            ]
        }
    ],
    "textures" : [
        {
            "sampler" : 0,
            "source" : 0
        },
        {
            "sampler" : 0,
            "source" : 0
        },
        {
            "sampler" : 0,
            "source" : 1
        },
        {
            "sampler" : 0,
            "source" : 2
        },
        {
            "sampler" : 0,
            "source" : 3
        },
        {
            "sampler" : 0,
            "source" : 4
        },
        {
            "sampler" : 0,
            "source" : 4
        }
    ],
    "images" : [
        {
            "bufferView" : 4,
            "mimeType" : "image/png",
            "name" : "inside_monstera_baseColor"
        },
        {
            "bufferView" : 11,
            "mimeType" : "image/png",
            "name" : "Monstera_Leaf_normal"
        },
        {
            "bufferView" : 12,
            "mimeType" : "image/png",
            "name" : "Monstera_Leaf_metallicRoughness"
        },
        {
            "bufferView" : 13,
            "mimeType" : "image/png",
            "name" : "Monstera_Leaf_baseColor"
        },
        {
            "bufferView" : 26,
            "mimeType" : "image/png",
            "name" : "noise"
        }
    ],
    "accessors" : [
        {
            "bufferView" : 0,
            "componentType" : 5126,
            "count" : 2826,
            "max" : [
                3.418921947479248,
                6.404202938079834,
                3.4128198623657227
            ],
            "min" : [
                -3.967179775238037,
                0.8971010446548462,
                -1.5359489917755127
            ],
            "type" : "VEC3"
        },
        {
            "bufferView" : 1,
            "componentType" : 5126,
            "count" : 2826,
            "type" : "VEC3"
        },
        {
            "bufferView" : 2,
            "componentType" : 5126,
            "count" : 2826,
            "type" : "VEC2"
        },
        {
            "bufferView" : 3,
            "componentType" : 5123,
            "count" : 10758,
            "type" : "SCALAR"
        },
        {
            "bufferView" : 5,
            "componentType" : 5126,
            "count" : 2826,
            "max" : [
                0.5212807655334473,
                -0.8921787738800049,
                0.49991416931152344
            ],
            "min" : [
                -0.5004074573516846,
                -3.077937602996826,
                -0.7112221717834473
            ],
            "type" : "VEC3"
        },
        {
            "bufferView" : 6,
            "componentType" : 5126,
            "count" : 2826,
            "type" : "VEC3"
        },
        {
            "bufferView" : 7,
            "componentType" : 5126,
            "count" : 7105,
            "max" : [
                3.4308903217315674,
                6.427207946777344,
                3.438957929611206
            ],
            "min" : [
                -4.016722679138184,
                0.882081925868988,
                -1.5595488548278809
            ],
            "type" : "VEC3"
        },
        {
            "bufferView" : 8,
            "componentType" : 5126,
            "count" : 7105,
            "type" : "VEC3"
        },
        {
            "bufferView" : 9,
            "componentType" : 5126,
            "count" : 7105,
            "type" : "VEC2"
        },
        {
            "bufferView" : 10,
            "componentType" : 5123,
            "count" : 35394,
            "type" : "SCALAR"
        },
        {
            "bufferView" : 14,
            "componentType" : 5126,
            "count" : 7105,
            "max" : [
                0.5255534648895264,
                -0.8869850635528564,
                0.5100222229957581
            ],
            "min" : [
                -0.5315899848937988,
                -3.086677074432373,
                -0.7167983055114746
            ],
            "type" : "VEC3"
        },
        {
            "bufferView" : 15,
            "componentType" : 5126,
            "count" : 7105,
            "type" : "VEC3"
        },
        {
            "bufferView" : 16,
            "componentType" : 5126,
            "count" : 207,
            "max" : [
                3.0458767414093018,
                5.884189605712891,
                2.259169101715088
            ],
            "min" : [
                -2.8151707649230957,
                -0.23737692832946777,
                -0.6712583303451538
            ],
            "type" : "VEC3"
        },
        {
            "bufferView" : 17,
            "componentType" : 5126,
            "count" : 207,
            "type" : "VEC3"
        },
        {
            "bufferView" : 18,
            "componentType" : 5126,
            "count" : 207,
            "type" : "VEC2"
        },
        {
            "bufferView" : 19,
            "componentType" : 5123,
            "count" : 1002,
            "type" : "SCALAR"
        },
        {
            "bufferView" : 20,
            "componentType" : 5126,
            "count" : 207,
            "max" : [
                0.023354053497314453,
                2.682209014892578e-07,
                0.023610234260559082
            ],
            "min" : [
                -0.04440748691558838,
                -2.004690647125244,
                -0.03731739521026611
            ],
            "type" : "VEC3"
        },
        {
            "bufferView" : 21,
            "componentType" : 5126,
            "count" : 207,
            "type" : "VEC3"
        },
        {
            "bufferView" : 22,
            "componentType" : 5126,
            "count" : 790,
            "max" : [
                1.2196732759475708,
                2.261195182800293,
                1.2196732759475708
            ],
            "min" : [
                -1.2196732759475708,
                0,
                -1.2196732759475708
            ],
            "type" : "VEC3"
        },
        {
            "bufferView" : 23,
            "componentType" : 5126,
            "count" : 790,
            "type" : "VEC3"
        },
        {
            "bufferView" : 24,
            "componentType" : 5126,
            "count" : 790,
            "type" : "VEC2"
        },
        {
            "bufferView" : 25,
            "componentType" : 5123,
            "count" : 3234,
            "type" : "SCALAR"
        },
        {
            "bufferView" : 27,
            "componentType" : 5126,
            "count" : 72,
            "max" : [
                0.9649677872657776,
                1.913328766822815,
                0.9649677872657776
            ],
            "min" : [
                -0.9649677872657776,
                1.8994076251983643,
                -0.9649677872657776
            ],
            "type" : "VEC3"
        },
        {
            "bufferView" : 28,
            "componentType" : 5126,
            "count" : 72,
            "type" : "VEC3"
        },
        {
            "bufferView" : 29,
            "componentType" : 5126,
            "count" : 72,
            "type" : "VEC2"
        },
        {
            "bufferView" : 30,
            "componentType" : 5123,
            "count" : 210,
            "type" : "SCALAR"
        }
    ],
    "bufferViews" : [
        {
            "buffer" : 0,
            "byteLength" : 33912,
            "byteOffset" : 0
        },
        {
            "buffer" : 0,
            "byteLength" : 33912,
            "byteOffset" : 33912
        },
        {
            "buffer" : 0,
            "byteLength" : 22608,
            "byteOffset" : 67824
        },
        {
            "buffer" : 0,
            "byteLength" : 21516,
            "byteOffset" : 90432
        },
        {
            "buffer" : 0,
            "byteLength" : 147218,
            "byteOffset" : 111948
        },
        {
            "buffer" : 0,
            "byteLength" : 33912,
            "byteOffset" : 259168
        },
        {
            "buffer" : 0,
            "byteLength" : 33912,
            "byteOffset" : 293080
        },
        {
            "buffer" : 0,
            "byteLength" : 85260,
            "byteOffset" : 326992
        },
        {
            "buffer" : 0,
            "byteLength" : 85260,
            "byteOffset" : 412252
        },
        {
            "buffer" : 0,
            "byteLength" : 56840,
            "byteOffset" : 497512
        },
        {
            "buffer" : 0,
            "byteLength" : 70788,
            "byteOffset" : 554352
        },
        {
            "buffer" : 0,
            "byteLength" : 202210,
            "byteOffset" : 625140
        },
        {
            "buffer" : 0,
            "byteLength" : 205435,
            "byteOffset" : 827352
        },
        {
            "buffer" : 0,
            "byteLength" : 476770,
            "byteOffset" : 1032788
        },
        {
            "buffer" : 0,
            "byteLength" : 85260,
            "byteOffset" : 1509560
        },
        {
            "buffer" : 0,
            "byteLength" : 85260,
            "byteOffset" : 1594820
        },
        {
            "buffer" : 0,
            "byteLength" : 2484,
            "byteOffset" : 1680080
        },
        {
            "buffer" : 0,
            "byteLength" : 2484,
            "byteOffset" : 1682564
        },
        {
            "buffer" : 0,
            "byteLength" : 1656,
            "byteOffset" : 1685048
        },
        {
            "buffer" : 0,
            "byteLength" : 2004,
            "byteOffset" : 1686704
        },
        {
            "buffer" : 0,
            "byteLength" : 2484,
            "byteOffset" : 1688708
        },
        {
            "buffer" : 0,
            "byteLength" : 2484,
            "byteOffset" : 1691192
        },
        {
            "buffer" : 0,
            "byteLength" : 9480,
            "byteOffset" : 1693676
        },
        {
            "buffer" : 0,
            "byteLength" : 9480,
            "byteOffset" : 1703156
        },
        {
            "buffer" : 0,
            "byteLength" : 6320,
            "byteOffset" : 1712636
        },
        {
            "buffer" : 0,
            "byteLength" : 6468,
            "byteOffset" : 1718956
        },
        {
            "buffer" : 0,
            "byteLength" : 9271,
            "byteOffset" : 1725424
        },
        {
            "buffer" : 0,
            "byteLength" : 864,
            "byteOffset" : 1734696
        },
        {
            "buffer" : 0,
            "byteLength" : 864,
            "byteOffset" : 1735560
        },
        {
            "buffer" : 0,
            "byteLength" : 576,
            "byteOffset" : 1736424
        },
        {
            "buffer" : 0,
            "byteLength" : 420,
            "byteOffset" : 1737000
        }
    ],
    "samplers" : [
        {
            "magFilter" : 9729,
            "minFilter" : 9987
        }
    ],
    "buffers" : [
        {
            "byteLength" : 1737420,
            "uri" : "data:application/octet-stream;base64,"
        }
    ]
}
