{
    "asset" : {
        "generator" : "Khronos glTF Blender I/O v1.6.16",
        "version" : "2.0"
    },
    "scene" : 0,
    "scenes" : [
        {
            "name" : "Scene",
            "nodes" : [
                0,
                1,
                2
            ]
        }
    ],
    "nodes" : [
        {
            "name" : "Light",
            "rotation" : [
                0.16907575726509094,
                0.7558803558349609,
                -0.27217137813568115,
                0.570947527885437
            ],
            "translation" : [
                13.103569030761719,
                7.519008636474609,
                12.923236846923828
            ]
        },
        {
            "name" : "Camera",
            "rotation" : [
                -0.02003699541091919,
                0.7068228125572205,
                -0.7068228721618652,
                -0.02003699354827404
            ],
            "scale" : [
                4.692666053771973,
                4.692666053771973,
                4.692666053771973
            ],
            "translation" : [
                -14.194132804870605,
                -1.094440221786499,
                27.076866149902344
            ]
        },
        {
            "mesh" : 0,
            "name" : "Cylinder.001"
        }
    ],
    "animations" : [
        {
            "channels" : [
                {
                    "sampler" : 0,
                    "target" : {
                        "node" : 1,
                        "path" : "translation"
                    }
                },
                {
                    "sampler" : 1,
                    "target" : {
                        "node" : 1,
                        "path" : "scale"
                    }
                }
            ],
            "name" : "CameraAction",
            "samplers" : [
                {
                    "input" : 4,
                    "interpolation" : "LINEAR",
                    "output" : 5
                },
                {
                    "input" : 4,
                    "interpolation" : "LINEAR",
                    "output" : 6
                }
            ]
        }
    ],
    "materials" : [
        {
            "doubleSided" : true,
            "name" : "Material.002",
            "pbrMetallicRoughness" : {
                "baseColorFactor" : [
                    0.7011021375656128,
                    0.8307698369026184,
                    1,
                    1
                ],
                "metallicFactor" : 0,
                "roughnessFactor" : 0.5
            }
        }
    ],
    "meshes" : [
        {
            "name" : "Cylinder.001",
            "primitives" : [
                {
                    "attributes" : {
                        "POSITION" : 0,
                        "NORMAL" : 1,
                        "TEXCOORD_0" : 2
                    },
                    "indices" : 3,
                    "material" : 0
                }
            ]
        }
    ],
    "accessors" : [
        {
            "bufferView" : 0,
            "componentType" : 5126,
            "count" : 11823,
            "max" : [
                2.643498420715332,
                12.158170700073242,
                1.122266173362732
            ],
            "min" : [
                -2.643259286880493,
                -0.2919588088989258,
                -1.628687858581543
            ],
            "type" : "VEC3"
        },
        {
            "bufferView" : 1,
            "componentType" : 5126,
            "count" : 11823,
            "type" : "VEC3"
        },
        {
            "bufferView" : 2,
            "componentType" : 5126,
            "count" : 11823,
            "type" : "VEC2"
        },
        {
            "bufferView" : 3,
            "componentType" : 5123,
            "count" : 50712,
            "type" : "SCALAR"
        },
        {
            "bufferView" : 4,
            "componentType" : 5126,
            "count" : 2,
            "max" : [
                4.125
            ],
            "min" : [
                4.083333333333333
            ],
            "type" : "SCALAR"
        },
        {
            "bufferView" : 5,
            "componentType" : 5126,
            "count" : 2,
            "type" : "VEC3"
        },
        {
            "bufferView" : 6,
            "componentType" : 5126,
            "count" : 2,
            "type" : "VEC3"
        }
    ],
    "bufferViews" : [
        {
            "buffer" : 0,
            "byteLength" : 141876,
            "byteOffset" : 0
        },
        {
            "buffer" : 0,
            "byteLength" : 141876,
            "byteOffset" : 141876
        },
        {
            "buffer" : 0,
            "byteLength" : 94584,
            "byteOffset" : 283752
        },
        {
            "buffer" : 0,
            "byteLength" : 101424,
            "byteOffset" : 378336
        },
        {
            "buffer" : 0,
            "byteLength" : 8,
            "byteOffset" : 479760
        },
        {
            "buffer" : 0,
            "byteLength" : 24,
            "byteOffset" : 479768
        },
        {
            "buffer" : 0,
            "byteLength" : 24,
            "byteOffset" : 479792
        }
    ],
    "buffers" : [
        {
            "byteLength" : 479816,
            "uri" : "data:application/octet-stream;base64,"
        }
    ]
}
