{
    "asset" : {
        "generator" : "Khronos glTF Blender I/O v1.6.16",
        "version" : "2.0"
    },
    "scene" : 0,
    "scenes" : [
        {
            "name" : "Scene",
            "nodes" : [
                0,
                1,
                2,
                3
            ]
        }
    ],
    "nodes" : [
        {
            "name" : "Light",
            "rotation" : [
                0.16907575726509094,
                0.7558803558349609,
                -0.27217137813568115,
                0.570947527885437
            ],
            "translation" : [
                13.103569030761719,
                7.519008636474609,
                12.923236846923828
            ]
        },
        {
            "name" : "Camera",
            "rotation" : [
                -0.02003699541091919,
                0.7068228125572205,
                -0.7068228721618652,
                -0.02003699354827404
            ],
            "scale" : [
                4.692666053771973,
                4.692666053771973,
                4.692666053771973
            ],
            "translation" : [
                -14.194132804870605,
                -1.094440221786499,
                27.076866149902344
            ]
        },
        {
            "mesh" : 0,
            "name" : "Cylinder.001"
        },
        {
            "mesh" : 1,
            "name" : "Plane"
        }
    ],
    "animations" : [
        {
            "channels" : [
                {
                    "sampler" : 0,
                    "target" : {
                        "node" : 1,
                        "path" : "translation"
                    }
                },
                {
                    "sampler" : 1,
                    "target" : {
                        "node" : 1,
                        "path" : "scale"
                    }
                }
            ],
            "name" : "CameraAction",
            "samplers" : [
                {
                    "input" : 8,
                    "interpolation" : "LINEAR",
                    "output" : 9
                },
                {
                    "input" : 8,
                    "interpolation" : "LINEAR",
                    "output" : 10
                }
            ]
        }
    ],
    "materials" : [
        {
            "doubleSided" : true,
            "name" : "Material.002",
            "pbrMetallicRoughness" : {
                "baseColorTexture" : {
                    "index" : 0
                },
                "metallicFactor" : 0,
                "roughnessFactor" : 0.5
            }
        },
        {
            "doubleSided" : true,
            "name" : "Material.003",
            "pbrMetallicRoughness" : {
                "baseColorTexture" : {
                    "index" : 1
                },
                "metallicFactor" : 0,
                "roughnessFactor" : 0.5
            }
        }
    ],
    "meshes" : [
        {
            "name" : "Cylinder.001",
            "primitives" : [
                {
                    "attributes" : {
                        "POSITION" : 0,
                        "NORMAL" : 1,
                        "TEXCOORD_0" : 2
                    },
                    "indices" : 3,
                    "material" : 0
                }
            ]
        },
        {
            "name" : "Plane",
            "primitives" : [
                {
                    "attributes" : {
                        "POSITION" : 4,
                        "NORMAL" : 5,
                        "TEXCOORD_0" : 6
                    },
                    "indices" : 7,
                    "material" : 1
                }
            ]
        }
    ],
    "textures" : [
        {
            "sampler" : 0,
            "source" : 0
        },
        {
            "sampler" : 0,
            "source" : 1
        }
    ],
    "images" : [
        {
            "bufferView" : 4,
            "mimeType" : "image/jpeg",
            "name" : "ao_pants"
        },
        {
            "bufferView" : 9,
            "mimeType" : "image/jpeg",
            "name" : "ao_ground"
        }
    ],
    "accessors" : [
        {
            "bufferView" : 0,
            "componentType" : 5126,
            "count" : 31824,
            "max" : [
                2.626404047012329,
                12.158170700073242,
                1.122266173362732
            ],
            "min" : [
                -2.6276168823242188,
                -0.1317906379699707,
                -1.628687858581543
            ],
            "type" : "VEC3"
        },
        {
            "bufferView" : 1,
            "componentType" : 5126,
            "count" : 31824,
            "type" : "VEC3"
        },
        {
            "bufferView" : 2,
            "componentType" : 5126,
            "count" : 31824,
            "type" : "VEC2"
        },
        {
            "bufferView" : 3,
            "componentType" : 5123,
            "count" : 47736,
            "type" : "SCALAR"
        },
        {
            "bufferView" : 5,
            "componentType" : 5126,
            "count" : 4,
            "max" : [
                10.612171173095703,
                -1.1722824573516846,
                10.612171173095703
            ],
            "min" : [
                -10.612171173095703,
                -1.1722824573516846,
                -10.612171173095703
            ],
            "type" : "VEC3"
        },
        {
            "bufferView" : 6,
            "componentType" : 5126,
            "count" : 4,
            "type" : "VEC3"
        },
        {
            "bufferView" : 7,
            "componentType" : 5126,
            "count" : 4,
            "type" : "VEC2"
        },
        {
            "bufferView" : 8,
            "componentType" : 5123,
            "count" : 6,
            "type" : "SCALAR"
        },
        {
            "bufferView" : 10,
            "componentType" : 5126,
            "count" : 2,
            "max" : [
                4.125
            ],
            "min" : [
                4.083333333333333
            ],
            "type" : "SCALAR"
        },
        {
            "bufferView" : 11,
            "componentType" : 5126,
            "count" : 2,
            "type" : "VEC3"
        },
        {
            "bufferView" : 12,
            "componentType" : 5126,
            "count" : 2,
            "type" : "VEC3"
        }
    ],
    "bufferViews" : [
        {
            "buffer" : 0,
            "byteLength" : 381888,
            "byteOffset" : 0
        },
        {
            "buffer" : 0,
            "byteLength" : 381888,
            "byteOffset" : 381888
        },
        {
            "buffer" : 0,
            "byteLength" : 254592,
            "byteOffset" : 763776
        },
        {
            "buffer" : 0,
            "byteLength" : 95472,
            "byteOffset" : 1018368
        },
        {
            "buffer" : 0,
            "byteLength" : 62717,
            "byteOffset" : 1113840
        },
        {
            "buffer" : 0,
            "byteLength" : 48,
            "byteOffset" : 1176560
        },
        {
            "buffer" : 0,
            "byteLength" : 48,
            "byteOffset" : 1176608
        },
        {
            "buffer" : 0,
            "byteLength" : 32,
            "byteOffset" : 1176656
        },
        {
            "buffer" : 0,
            "byteLength" : 12,
            "byteOffset" : 1176688
        },
        {
            "buffer" : 0,
            "byteLength" : 18274,
            "byteOffset" : 1176700
        },
        {
            "buffer" : 0,
            "byteLength" : 8,
            "byteOffset" : 1194976
        },
        {
            "buffer" : 0,
            "byteLength" : 24,
            "byteOffset" : 1194984
        },
        {
            "buffer" : 0,
            "byteLength" : 24,
            "byteOffset" : 1195008
        }
    ],
    "samplers" : [
        {
            "magFilter" : 9729,
            "minFilter" : 9987
        }
    ],
    "buffers" : [
        {
            "byteLength" : 1195032,
            "uri" : "data:application/octet-stream;base64,"
        }
    ]
}
