# Blender v2.93.4 OBJ File: 'TYPEPRISM.blend'
# www.blender.org
mtllib TYPEPRISM.mtl
o Plane_Plane.001
v 2.387678 0.013594 0.420000
v 2.387678 -0.008783 0.338148
v 2.468708 0.121639 0.304243
v 2.387678 -0.024606 0.396026
v 2.434462 0.009343 0.374720
v 2.444975 0.045240 0.304243
v 2.444975 0.067616 0.386096
v 2.387678 1.545405 0.338148
v 2.387678 1.523028 0.420000
v 2.468708 1.414983 0.304244
v 2.387678 1.561228 0.396026
v 2.434462 1.527279 0.374720
v 2.444975 1.469005 0.386096
v 2.444975 1.491382 0.304244
v 2.387678 0.714288 -0.757415
v 2.387678 0.822333 -0.757415
v 2.468708 0.768311 -0.675562
v 2.387678 0.768311 -0.791319
v 2.434461 0.768311 -0.770077
v 2.444975 0.806511 -0.733441
v 2.444975 0.730111 -0.733441
v 2.468708 0.406775 -0.127781
v 2.387678 0.352753 -0.209633
v 2.444975 0.368576 -0.185659
v 2.468708 1.129847 -0.127781
v 2.387678 1.183869 -0.209633
v 2.444975 1.168046 -0.185659
v 2.468708 0.768311 0.304244
v 2.387678 0.768311 0.420000
v 2.444975 0.768311 0.386096
v -2.436706 0.352753 -0.209633
v -2.517736 0.406775 -0.127781
v -2.494003 0.368576 -0.185659
v -2.436706 0.714288 -0.757415
v -2.517736 0.768311 -0.675562
v -2.436706 0.822333 -0.757415
v -2.494003 0.730111 -0.733441
v -2.483489 0.768311 -0.770077
v -2.494003 0.806511 -0.733441
v -2.436706 0.768311 -0.791319
v -2.436706 1.183869 -0.209633
v -2.517736 1.129847 -0.127781
v -2.494003 1.168046 -0.185659
v -2.436706 1.545405 0.338148
v -2.517736 1.414983 0.304244
v -2.436707 1.523028 0.420000
v -2.494003 1.491382 0.304244
v -2.483490 1.527279 0.374720
v -2.494003 1.469005 0.386096
v -2.436706 1.561228 0.396026
v -2.436706 0.768311 0.420000
v -2.517736 0.768311 0.304244
v -2.494003 0.768311 0.386096
v -2.436707 0.013594 0.420000
v -2.517736 0.121639 0.304244
v -2.436706 -0.008783 0.338148
v -2.494003 0.067616 0.386096
v -2.483490 0.009343 0.374720
v -2.494003 0.045240 0.304243
v -2.436706 -0.024606 0.396026
vt 0.996275 0.626690
vt 0.007978 0.626689
vt 0.007978 0.492236
vt 0.996275 0.492237
vt 0.996456 0.970404
vt 0.008159 0.970402
vt 0.008159 0.815795
vt 0.996456 0.815796
vt 0.887935 0.737281
vt 0.887935 0.737281
vt 0.887935 0.737281
vt 0.996147 0.323284
vt 0.007850 0.323284
vt 0.007850 0.188831
vt 0.996147 0.188831
vt 0.887935 0.737281
vt 0.887935 0.737281
vt 0.887935 0.737281
vt 0.887935 0.737281
vt 0.887935 0.737281
vt 0.887935 0.737281
vt 0.887935 0.737281
vt 0.887935 0.737281
vt 0.007978 0.357784
vt 0.996275 0.357784
vt 0.007850 0.054378
vt 0.996147 0.054378
vt 0.887935 0.737281
vt 0.887935 0.737281
vt 0.887935 0.737281
vt 0.887935 0.737281
vt 0.887935 0.737281
vt 0.887935 0.737281
vt 0.887935 0.737281
vt 0.887935 0.737281
vt 0.887935 0.737281
vt 0.887935 0.737281
vt 0.887935 0.737281
vt 0.887935 0.737281
vt 0.887935 0.737281
vt 0.887935 0.737281
vt 0.887935 0.737281
vt 0.887935 0.737281
vt 0.887935 0.737281
vt 0.887935 0.737281
vt 0.887935 0.737281
vt 0.887935 0.737281
vt 0.887935 0.737281
vt 0.887935 0.737281
vt 0.887935 0.737281
vt 0.887935 0.737281
vt 0.887935 0.737281
vt 0.887935 0.737281
vt 0.887935 0.737281
vt 0.887935 0.737281
vt 0.887935 0.737281
vt 0.887935 0.737281
vt 0.887935 0.737281
vt 0.887935 0.737281
vt 0.887935 0.737281
vt 0.887935 0.737281
vt 0.887935 0.737281
vt 0.887935 0.737281
vt 0.887935 0.737281
vt 0.887935 0.737281
vt 0.887935 0.737281
vt 0.887935 0.737281
vt 0.887935 0.737281
vt 0.887935 0.737281
vt 0.887935 0.737281
vt 0.887935 0.737281
vt 0.887935 0.737281
vt 0.887935 0.737281
vt 0.887935 0.737281
vt 0.887935 0.737281
vt 0.887935 0.737281
vt 0.996211 0.340534
vt 0.007914 0.340534
vt 0.996457 0.661188
vt 0.008159 0.661188
vt 0.008052 0.643939
vt 0.996349 0.643939
vt 0.007775 0.037129
vt 0.996073 0.037129
vn 0.2535 -0.8843 -0.3920
vn -0.2535 -0.8843 -0.3920
vn -0.2143 -0.8152 -0.5380
vn 0.2143 -0.8152 -0.5380
vn 0.3067 0.2660 0.9138
vn -0.3067 0.2660 0.9138
vn -0.2640 0.0000 0.9645
vn 0.2640 0.0000 0.9645
vn -0.9842 -0.1479 -0.0976
vn -0.9842 0.1479 -0.0976
vn -0.9821 0.0000 -0.1884
vn 0.2080 0.6885 -0.6948
vn -0.2080 0.6885 -0.6948
vn -0.2143 0.8152 -0.5380
vn 0.2143 0.8152 -0.5380
vn -0.9901 0.0000 0.1406
vn -0.9889 0.1426 0.0418
vn -0.9889 -0.1426 0.0418
vn 0.9901 0.0000 0.1406
vn 0.9842 -0.1479 -0.0976
vn 0.9842 0.1479 -0.0976
vn 0.9889 -0.1426 0.0418
vn 0.9821 0.0000 -0.1884
vn -0.2080 -0.6885 -0.6948
vn 0.2080 -0.6885 -0.6948
vn -0.2535 0.8843 -0.3920
vn 0.2535 0.8843 -0.3920
vn 0.9889 0.1426 0.0418
vn 0.3067 -0.2660 0.9138
vn 0.3341 -0.8702 0.3620
vn 0.7864 -0.5841 0.2009
vn 0.8323 -0.1414 0.5360
vn 0.7778 -0.5735 -0.2570
vn 0.3341 0.8702 0.3620
vn 0.7864 0.5841 0.2009
vn 0.7778 0.5735 -0.2570
vn 0.8323 0.1414 0.5360
vn 0.2274 0.0000 -0.9738
vn 0.6571 0.0000 -0.7537
vn 0.7505 -0.4352 -0.4974
vn 0.7505 0.4352 -0.4974
vn -0.7505 -0.4352 -0.4974
vn -0.6571 0.0000 -0.7537
vn -0.2274 0.0000 -0.9738
vn -0.7505 0.4352 -0.4974
vn -0.7778 0.5735 -0.2570
vn -0.7864 0.5841 0.2009
vn -0.3341 0.8702 0.3620
vn -0.8323 0.1414 0.5360
vn -0.3067 -0.2660 0.9138
vn -0.8323 -0.1414 0.5360
vn -0.7864 -0.5841 0.2009
vn -0.3341 -0.8702 0.3620
vn -0.7778 -0.5735 -0.2570
vn 0.7333 -0.5674 -0.3745
vn 0.7333 0.5674 -0.3745
vn 0.7904 0.0000 0.6126
vn -0.7333 -0.5674 -0.3745
vn -0.7333 0.5674 -0.3745
vn -0.7904 0.0000 0.6126
usemtl Material.001
s 1
f 2/1/1 56/2/2 31/3/3 23/4/4
f 9/5/5 46/6/6 51/7/7 29/8/8
f 32/9/9 42/10/10 35/11/11
f 16/12/12 36/13/13 41/14/14 26/15/15
f 52/16/16 42/10/10 32/9/9
f 52/16/16 45/17/17 42/10/10
f 55/18/18 52/16/16 32/9/9
f 28/19/19 22/20/20 25/21/21
f 3/22/22 22/20/20 28/19/19
f 22/20/20 17/23/23 25/21/21
f 23/4/4 31/3/3 34/24/24 15/25/25
f 26/15/15 41/14/14 44/26/26 8/27/27
f 28/19/19 25/21/21 10/28/28
f 1/29/29 4/30/30 5/31/31 7/32/32
f 2/33/1 6/34/33 5/31/31 4/30/30
f 3/22/22 7/32/32 5/31/31 6/34/33
f 8/35/27 11/36/34 12/37/35 14/38/36
f 9/39/5 13/40/37 12/37/35 11/36/34
f 10/28/28 14/38/36 12/37/35 13/40/37
f 15/41/25 18/42/38 19/43/39 21/44/40
f 16/45/12 20/46/41 19/43/39 18/42/38
f 17/23/23 21/44/40 19/43/39 20/46/41
f 34/47/24 37/48/42 38/49/43 40/50/44
f 35/11/11 39/51/45 38/49/43 37/48/42
f 36/52/13 40/50/44 38/49/43 39/51/45
f 44/53/26 47/54/46 48/55/47 50/56/48
f 45/17/17 49/57/49 48/55/47 47/54/46
f 46/58/6 50/56/48 48/55/47 49/57/49
f 54/59/50 57/60/51 58/61/52 60/62/53
f 55/18/18 59/63/54 58/61/52 57/60/51
f 56/64/2 60/62/53 58/61/52 59/63/54
f 23/65/4 15/41/25 21/44/40 24/66/55
f 24/66/55 21/44/40 17/23/23 22/20/20
f 26/67/15 8/35/27 14/38/36 27/68/56
f 27/68/56 14/38/36 10/28/28 25/21/21
f 29/69/8 1/29/29 7/32/32 30/70/57
f 30/70/57 7/32/32 3/22/22 28/19/19
f 2/33/1 23/65/4 24/66/55 6/34/33
f 6/34/33 24/66/55 22/20/20 3/22/22
f 16/45/12 26/67/15 27/68/56 20/46/41
f 20/46/41 27/68/56 25/21/21 17/23/23
f 9/39/5 29/69/8 30/70/57 13/40/37
f 13/40/37 30/70/57 28/19/19 10/28/28
f 32/9/9 35/11/11 37/48/42 33/71/58
f 33/71/58 37/48/42 34/47/24 31/72/3
f 42/10/10 45/17/17 47/54/46 43/73/59
f 43/73/59 47/54/46 44/53/26 41/74/14
f 52/16/16 55/18/18 57/60/51 53/75/60
f 53/75/60 57/60/51 54/59/50 51/76/7
f 55/18/18 32/9/9 33/71/58 59/63/54
f 59/63/54 33/71/58 31/72/3 56/64/2
f 35/11/11 42/10/10 43/73/59 39/51/45
f 39/51/45 43/73/59 41/74/14 36/52/13
f 45/17/17 52/16/16 53/75/60 49/57/49
f 49/57/49 53/75/60 51/76/7 46/58/6
f 36/13/13 16/12/12 18/77/38 40/78/44
f 40/78/44 18/77/38 15/25/25 34/24/24
f 1/79/29 54/80/50 60/81/53 4/82/30
f 4/82/30 60/81/53 56/2/2 2/1/1
f 46/58/6 9/39/5 11/36/34 50/56/48
f 50/83/48 11/84/34 8/27/27 44/26/26
f 29/8/8 51/7/7 54/80/50 1/79/29
