{
    "asset" : {
        "generator" : "Khronos glTF Blender I/O v1.6.16",
        "version" : "2.0"
    },
    "scene" : 0,
    "scenes" : [
        {
            "name" : "Scene",
            "nodes" : [
                0,
                1,
                2,
                3,
                4
            ]
        }
    ],
    "nodes" : [
        {
            "name" : "Light",
            "rotation" : [
                0.16907575726509094,
                0.7558803558349609,
                -0.27217137813568115,
                0.570947527885437
            ],
            "translation" : [
                4.076245307922363,
                5.903861999511719,
                -1.0054539442062378
            ]
        },
        {
            "name" : "Camera",
            "rotation" : [
                0.7071068286895752,
                0,
                0,
                0.7071068286895752
            ],
            "translation" : [
                0,
                0.7306368947029114,
                7.4491658210754395
            ]
        },
        {
            "mesh" : 0,
            "name" : "Torus",
            "rotation" : [
                0,
                0.9059415459632874,
                0,
                -0.4234030246734619
            ],
            "scale" : [
                0.49955591559410095,
                0.49955591559410095,
                0.49955591559410095
            ],
            "translation" : [
                0.10880210995674133,
                0.9861218333244324,
                0.07451153546571732
            ]
        },
        {
            "mesh" : 1,
            "name" : "Body_M_GeoRndr_bababa_0.001"
        },
        {
            "mesh" : 2,
            "name" : "Cylinder"
        }
    ],
    "materials" : [
        {
            "alphaMode" : "BLEND",
            "doubleSided" : true,
            "name" : "Material.001",
            "pbrMetallicRoughness" : {
                "baseColorTexture" : {
                    "index" : 0
                },
                "metallicFactor" : 0
            }
        },
        {
            "alphaMode" : "BLEND",
            "doubleSided" : true,
            "name" : "Material.002",
            "pbrMetallicRoughness" : {
                "baseColorFactor" : [
                    0,
                    0,
                    0,
                    1
                ],
                "metallicFactor" : 0
            }
        }
    ],
    "meshes" : [
        {
            "name" : "Torus",
            "primitives" : [
                {
                    "attributes" : {
                        "POSITION" : 0,
                        "NORMAL" : 1,
                        "TEXCOORD_0" : 2
                    },
                    "indices" : 3,
                    "material" : 0
                }
            ]
        },
        {
            "name" : "Body_M_GeoRndr_bababa_0mesh",
            "primitives" : [
                {
                    "attributes" : {
                        "POSITION" : 4,
                        "NORMAL" : 5,
                        "TEXCOORD_0" : 6
                    },
                    "indices" : 7,
                    "material" : 1
                }
            ]
        },
        {
            "name" : "Cylinder",
            "primitives" : [
                {
                    "attributes" : {
                        "POSITION" : 8,
                        "NORMAL" : 9,
                        "TEXCOORD_0" : 10
                    },
                    "indices" : 11,
                    "material" : 1
                }
            ]
        }
    ],
    "textures" : [
        {
            "sampler" : 0,
            "source" : 0
        }
    ],
    "images" : [
        {
            "bufferView" : 4,
            "mimeType" : "image/png",
            "name" : "lines"
        }
    ],
    "accessors" : [
        {
            "bufferView" : 0,
            "componentType" : 5126,
            "count" : 2588,
            "max" : [
                1.6731480360031128,
                2.0223681926727295,
                1.9464383125305176
            ],
            "min" : [
                -2.058082103729248,
                -1.8606818914413452,
                -1.8575111627578735
            ],
            "type" : "VEC3"
        },
        {
            "bufferView" : 1,
            "componentType" : 5126,
            "count" : 2588,
            "type" : "VEC3"
        },
        {
            "bufferView" : 2,
            "componentType" : 5126,
            "count" : 2588,
            "type" : "VEC2"
        },
        {
            "bufferView" : 3,
            "componentType" : 5123,
            "count" : 13824,
            "type" : "SCALAR"
        },
        {
            "bufferView" : 5,
            "componentType" : 5126,
            "count" : 12011,
            "max" : [
                0.7043461799621582,
                1.4517980813980103,
                0.46841728687286377
            ],
            "min" : [
                -0.005208253860473633,
                0.4793814718723297,
                -0.2936566472053528
            ],
            "type" : "VEC3"
        },
        {
            "bufferView" : 6,
            "componentType" : 5126,
            "count" : 12011,
            "type" : "VEC3"
        },
        {
            "bufferView" : 7,
            "componentType" : 5126,
            "count" : 12011,
            "type" : "VEC2"
        },
        {
            "bufferView" : 8,
            "componentType" : 5123,
            "count" : 61866,
            "type" : "SCALAR"
        },
        {
            "bufferView" : 9,
            "componentType" : 5126,
            "count" : 229,
            "max" : [
                0.5442572236061096,
                1.4556020498275757,
                0.07092440128326416
            ],
            "min" : [
                0.39754122495651245,
                1.289827585220337,
                -0.13265052437782288
            ],
            "type" : "VEC3"
        },
        {
            "bufferView" : 10,
            "componentType" : 5126,
            "count" : 229,
            "type" : "VEC3"
        },
        {
            "bufferView" : 11,
            "componentType" : 5126,
            "count" : 229,
            "type" : "VEC2"
        },
        {
            "bufferView" : 12,
            "componentType" : 5123,
            "count" : 948,
            "type" : "SCALAR"
        }
    ],
    "bufferViews" : [
        {
            "buffer" : 0,
            "byteLength" : 31056,
            "byteOffset" : 0
        },
        {
            "buffer" : 0,
            "byteLength" : 31056,
            "byteOffset" : 31056
        },
        {
            "buffer" : 0,
            "byteLength" : 20704,
            "byteOffset" : 62112
        },
        {
            "buffer" : 0,
            "byteLength" : 27648,
            "byteOffset" : 82816
        },
        {
            "buffer" : 0,
            "byteLength" : 6518,
            "byteOffset" : 110464
        },
        {
            "buffer" : 0,
            "byteLength" : 144132,
            "byteOffset" : 116984
        },
        {
            "buffer" : 0,
            "byteLength" : 144132,
            "byteOffset" : 261116
        },
        {
            "buffer" : 0,
            "byteLength" : 96088,
            "byteOffset" : 405248
        },
        {
            "buffer" : 0,
            "byteLength" : 123732,
            "byteOffset" : 501336
        },
        {
            "buffer" : 0,
            "byteLength" : 2748,
            "byteOffset" : 625068
        },
        {
            "buffer" : 0,
            "byteLength" : 2748,
            "byteOffset" : 627816
        },
        {
            "buffer" : 0,
            "byteLength" : 1832,
            "byteOffset" : 630564
        },
        {
            "buffer" : 0,
            "byteLength" : 1896,
            "byteOffset" : 632396
        }
    ],
    "samplers" : [
        {
            "magFilter" : 9729,
            "minFilter" : 9987
        }
    ],
    "buffers" : [
        {
            "byteLength" : 634292,
            "uri" : "data:application/octet-stream;base64,"
        }
    ]
}
