{
    "asset" : {
        "generator" : "Khronos glTF Blender I/O v1.6.16",
        "version" : "2.0"
    },
    "extensionsUsed" : [
        "KHR_materials_unlit"
    ],
    "scene" : 0,
    "scenes" : [
        {
            "name" : "Scene",
            "nodes" : [
                0,
                1,
                2,
                3,
                4,
                5
            ]
        }
    ],
    "nodes" : [
        {
            "mesh" : 0,
            "name" : "Cube",
            "translation" : [
                -0.14795875549316406,
                3.002264976501465,
                0
            ]
        },
        {
            "name" : "Light",
            "rotation" : [
                0.16907575726509094,
                0.7558803558349609,
                -0.27217137813568115,
                0.570947527885437
            ],
            "translation" : [
                4.076245307922363,
                5.903861999511719,
                -1.0054539442062378
            ]
        },
        {
            "name" : "Camera",
            "rotation" : [
                0.7071068286895752,
                0,
                0,
                0.7071068286895752
            ],
            "translation" : [
                0,
                0.6656567454338074,
                22.69336700439453
            ]
        },
        {
            "mesh" : 1,
            "name" : "Cube.001",
            "translation" : [
                -6.5705132484436035,
                -0.22271060943603516,
                -2.2849769592285156
            ]
        },
        {
            "mesh" : 2,
            "name" : "Cube.002",
            "translation" : [
                -6.5705132484436035,
                -0.22271060943603516,
                -2.2849769592285156
            ]
        },
        {
            "name" : "Light.001",
            "rotation" : [
                0.6159365177154541,
                -0.6567690968513489,
                -0.26282286643981934,
                0.3466997444629669
            ],
            "translation" : [
                -2.3750593662261963,
                1.424319863319397,
                5.241656303405762
            ]
        }
    ],
    "materials" : [
        {
            "doubleSided" : true,
            "name" : "Material.001",
            "pbrMetallicRoughness" : {
                "baseColorFactor" : [
                    0,
                    0,
                    0,
                    1
                ],
                "metallicFactor" : 0
            }
        },
        {
            "doubleSided" : true,
            "extensions" : {
                "KHR_materials_unlit" : {}
            },
            "name" : "white",
            "pbrMetallicRoughness" : {
                "metallicFactor" : 0,
                "roughnessFactor" : 0.9
            }
        },
        {
            "doubleSided" : true,
            "name" : "Material",
            "pbrMetallicRoughness" : {
                "baseColorFactor" : [
                    0,
                    0.03560132905840874,
                    0.3564002215862274,
                    1
                ],
                "metallicFactor" : 0
            }
        }
    ],
    "meshes" : [
        {
            "extras" : {
                "targetNames" : [
                    "Key 1"
                ]
            },
            "name" : "Cube",
            "primitives" : [
                {
                    "attributes" : {
                        "POSITION" : 0,
                        "NORMAL" : 1,
                        "TEXCOORD_0" : 2
                    },
                    "indices" : 3,
                    "material" : 0,
                    "targets" : [
                        {
                            "POSITION" : 4,
                            "NORMAL" : 5
                        }
                    ]
                }
            ],
            "weights" : [
                0
            ]
        },
        {
            "name" : "Cube.001",
            "primitives" : [
                {
                    "attributes" : {
                        "POSITION" : 6,
                        "NORMAL" : 7,
                        "TEXCOORD_0" : 8
                    },
                    "indices" : 9,
                    "material" : 1
                }
            ]
        },
        {
            "name" : "Cube.003",
            "primitives" : [
                {
                    "attributes" : {
                        "POSITION" : 10,
                        "NORMAL" : 11,
                        "TEXCOORD_0" : 12
                    },
                    "indices" : 13,
                    "material" : 2
                }
            ]
        }
    ],
    "accessors" : [
        {
            "bufferView" : 0,
            "componentType" : 5126,
            "count" : 356,
            "max" : [
                0.8156232237815857,
                -0.06619501113891602,
                0.6184723377227783
            ],
            "min" : [
                -0.9891247749328613,
                -4.615505695343018,
                -0.4951707720756531
            ],
            "type" : "VEC3"
        },
        {
            "bufferView" : 1,
            "componentType" : 5126,
            "count" : 356,
            "type" : "VEC3"
        },
        {
            "bufferView" : 2,
            "componentType" : 5126,
            "count" : 356,
            "type" : "VEC2"
        },
        {
            "bufferView" : 3,
            "componentType" : 5123,
            "count" : 534,
            "type" : "SCALAR"
        },
        {
            "bufferView" : 4,
            "componentType" : 5126,
            "count" : 356,
            "max" : [
                0.5441955924034119,
                0.3139972686767578,
                0.1812228560447693
            ],
            "min" : [
                -0.9130865931510925,
                -0.26290297508239746,
                -0.510528564453125
            ],
            "type" : "VEC3"
        },
        {
            "bufferView" : 5,
            "componentType" : 5126,
            "count" : 356,
            "type" : "VEC3"
        },
        {
            "bufferView" : 6,
            "componentType" : 5126,
            "count" : 72,
            "max" : [
                13.24370288848877,
                4.451616287231445,
                7.246232032775879
            ],
            "min" : [
                0.5778965950012207,
                -2.9923295974731445,
                -4.428075790405273
            ],
            "type" : "VEC3"
        },
        {
            "bufferView" : 7,
            "componentType" : 5126,
            "count" : 72,
            "type" : "VEC3"
        },
        {
            "bufferView" : 8,
            "componentType" : 5126,
            "count" : 72,
            "type" : "VEC2"
        },
        {
            "bufferView" : 9,
            "componentType" : 5123,
            "count" : 108,
            "type" : "SCALAR"
        },
        {
            "bufferView" : 10,
            "componentType" : 5126,
            "count" : 514,
            "max" : [
                14.586324691772461,
                2.877060651779175,
                4.354661464691162
            ],
            "min" : [
                -1.0742233991622925,
                -4.659028053283691,
                -1.1015031337738037
            ],
            "type" : "VEC3"
        },
        {
            "bufferView" : 11,
            "componentType" : 5126,
            "count" : 514,
            "type" : "VEC3"
        },
        {
            "bufferView" : 12,
            "componentType" : 5126,
            "count" : 514,
            "type" : "VEC2"
        },
        {
            "bufferView" : 13,
            "componentType" : 5123,
            "count" : 2688,
            "type" : "SCALAR"
        }
    ],
    "bufferViews" : [
        {
            "buffer" : 0,
            "byteLength" : 4272,
            "byteOffset" : 0
        },
        {
            "buffer" : 0,
            "byteLength" : 4272,
            "byteOffset" : 4272
        },
        {
            "buffer" : 0,
            "byteLength" : 2848,
            "byteOffset" : 8544
        },
        {
            "buffer" : 0,
            "byteLength" : 1068,
            "byteOffset" : 11392
        },
        {
            "buffer" : 0,
            "byteLength" : 4272,
            "byteOffset" : 12460
        },
        {
            "buffer" : 0,
            "byteLength" : 4272,
            "byteOffset" : 16732
        },
        {
            "buffer" : 0,
            "byteLength" : 864,
            "byteOffset" : 21004
        },
        {
            "buffer" : 0,
            "byteLength" : 864,
            "byteOffset" : 21868
        },
        {
            "buffer" : 0,
            "byteLength" : 576,
            "byteOffset" : 22732
        },
        {
            "buffer" : 0,
            "byteLength" : 216,
            "byteOffset" : 23308
        },
        {
            "buffer" : 0,
            "byteLength" : 6168,
            "byteOffset" : 23524
        },
        {
            "buffer" : 0,
            "byteLength" : 6168,
            "byteOffset" : 29692
        },
        {
            "buffer" : 0,
            "byteLength" : 4112,
            "byteOffset" : 35860
        },
        {
            "buffer" : 0,
            "byteLength" : 5376,
            "byteOffset" : 39972
        }
    ],
    "buffers" : [
        {
            "byteLength" : 45348,
            "uri" : "data:application/octet-stream;base64,"
        }
    ]
}
