{
    "asset" : {
        "generator" : "Khronos glTF Blender I/O v1.6.16",
        "version" : "2.0"
    },
    "extensionsUsed" : [
        "KHR_materials_unlit"
    ],
    "scene" : 0,
    "scenes" : [
        {
            "name" : "Scene",
            "nodes" : [
                0,
                1,
                2,
                3,
                5
            ]
        }
    ],
    "nodes" : [
        {
            "name" : "Light",
            "rotation" : [
                0.16907575726509094,
                0.7558803558349609,
                -0.27217137813568115,
                0.570947527885437
            ],
            "translation" : [
                4.076245307922363,
                5.903861999511719,
                -1.0054539442062378
            ]
        },
        {
            "name" : "Camera",
            "rotation" : [
                0.7071068286895752,
                0,
                0,
                0.7071068286895752
            ],
            "translation" : [
                0,
                0.8811593055725098,
                12.856292724609375
            ]
        },
        {
            "name" : "Light.001",
            "rotation" : [
                0.8794994354248047,
                -0.40316128730773926,
                -0.15625271201133728,
                0.19881349802017212
            ],
            "translation" : [
                -1.9068540334701538,
                0.35004115104675293,
                1.8901625871658325
            ]
        },
        {
            "mesh" : 0,
            "name" : "Circle",
            "translation" : [
                0,
                0.6486154794692993,
                0
            ]
        },
        {
            "mesh" : 1,
            "name" : "Cylinder"
        },
        {
            "children" : [
                4
            ],
            "mesh" : 2,
            "name" : "Body_M_GeoRndr_bababa_0.001",
            "rotation" : [
                0.05075053125619888,
                0.02637065015733242,
                -0.12313064187765121,
                0.9907410740852356
            ],
            "scale" : [
                2.2825803756713867,
                2.2825803756713867,
                2.2825803756713867
            ],
            "translation" : [
                -0.8389098644256592,
                0.20159628987312317,
                -0.18267250061035156
            ]
        }
    ],
    "materials" : [
        {
            "doubleSided" : true,
            "extensions" : {
                "KHR_materials_unlit" : {}
            },
            "name" : "Material.001",
            "pbrMetallicRoughness" : {
                "metallicFactor" : 0,
                "roughnessFactor" : 0.9
            }
        },
        {
            "doubleSided" : true,
            "name" : "Material.003",
            "pbrMetallicRoughness" : {
                "baseColorFactor" : [
                    0,
                    0,
                    0,
                    1
                ],
                "metallicFactor" : 0
            }
        }
    ],
    "meshes" : [
        {
            "name" : "Circle",
            "primitives" : [
                {
                    "attributes" : {
                        "POSITION" : 0,
                        "NORMAL" : 1,
                        "TEXCOORD_0" : 2
                    },
                    "indices" : 3,
                    "material" : 0
                }
            ]
        },
        {
            "name" : "Cylinder",
            "primitives" : [
                {
                    "attributes" : {
                        "POSITION" : 4,
                        "NORMAL" : 5,
                        "TEXCOORD_0" : 6
                    },
                    "indices" : 7,
                    "material" : 1
                }
            ]
        },
        {
            "name" : "Body_M_GeoRndr_bababa_0mesh",
            "primitives" : [
                {
                    "attributes" : {
                        "POSITION" : 8,
                        "NORMAL" : 9,
                        "TEXCOORD_0" : 10
                    },
                    "indices" : 11,
                    "material" : 1
                }
            ]
        }
    ],
    "accessors" : [
        {
            "bufferView" : 0,
            "componentType" : 5126,
            "count" : 31488,
            "max" : [
                1.5781813859939575,
                3.328312873840332,
                2.4494240283966064
            ],
            "min" : [
                -1.1992093324661255,
                0.062393464148044586,
                -1.0846909284591675
            ],
            "type" : "VEC3"
        },
        {
            "bufferView" : 1,
            "componentType" : 5126,
            "count" : 31488,
            "type" : "VEC3"
        },
        {
            "bufferView" : 2,
            "componentType" : 5126,
            "count" : 31488,
            "type" : "VEC2"
        },
        {
            "bufferView" : 3,
            "componentType" : 5123,
            "count" : 47232,
            "type" : "SCALAR"
        },
        {
            "bufferView" : 4,
            "componentType" : 5126,
            "count" : 229,
            "max" : [
                0.5442572236061096,
                1.4556020498275757,
                0.07092440128326416
            ],
            "min" : [
                0.39754122495651245,
                1.289827585220337,
                -0.13265052437782288
            ],
            "type" : "VEC3"
        },
        {
            "bufferView" : 5,
            "componentType" : 5126,
            "count" : 229,
            "type" : "VEC3"
        },
        {
            "bufferView" : 6,
            "componentType" : 5126,
            "count" : 229,
            "type" : "VEC2"
        },
        {
            "bufferView" : 7,
            "componentType" : 5123,
            "count" : 948,
            "type" : "SCALAR"
        },
        {
            "bufferView" : 8,
            "componentType" : 5126,
            "count" : 11637,
            "max" : [
                0.7043461799621582,
                1.4517980813980103,
                0.46841728687286377
            ],
            "min" : [
                -0.005208253860473633,
                0.4793814718723297,
                -0.2936566472053528
            ],
            "type" : "VEC3"
        },
        {
            "bufferView" : 9,
            "componentType" : 5126,
            "count" : 11637,
            "type" : "VEC3"
        },
        {
            "bufferView" : 10,
            "componentType" : 5126,
            "count" : 11637,
            "type" : "VEC2"
        },
        {
            "bufferView" : 11,
            "componentType" : 5123,
            "count" : 61392,
            "type" : "SCALAR"
        }
    ],
    "bufferViews" : [
        {
            "buffer" : 0,
            "byteLength" : 377856,
            "byteOffset" : 0
        },
        {
            "buffer" : 0,
            "byteLength" : 377856,
            "byteOffset" : 377856
        },
        {
            "buffer" : 0,
            "byteLength" : 251904,
            "byteOffset" : 755712
        },
        {
            "buffer" : 0,
            "byteLength" : 94464,
            "byteOffset" : 1007616
        },
        {
            "buffer" : 0,
            "byteLength" : 2748,
            "byteOffset" : 1102080
        },
        {
            "buffer" : 0,
            "byteLength" : 2748,
            "byteOffset" : 1104828
        },
        {
            "buffer" : 0,
            "byteLength" : 1832,
            "byteOffset" : 1107576
        },
        {
            "buffer" : 0,
            "byteLength" : 1896,
            "byteOffset" : 1109408
        },
        {
            "buffer" : 0,
            "byteLength" : 139644,
            "byteOffset" : 1111304
        },
        {
            "buffer" : 0,
            "byteLength" : 139644,
            "byteOffset" : 1250948
        },
        {
            "buffer" : 0,
            "byteLength" : 93096,
            "byteOffset" : 1390592
        },
        {
            "buffer" : 0,
            "byteLength" : 122784,
            "byteOffset" : 1483688
        }
    ],
    "buffers" : [
        {
            "byteLength" : 1606472,
            "uri" : "data:application/octet-stream;base64,"
        }
    ]
}
